<svg width="18" height="18" viewBox="0 0 18 18" fill="none" xmlns="http://www.w3.org/2000/svg">
<path d="M5.66666 3.79167C5.32499 3.79167 5.04166 3.50834 5.04166 3.16667V0.666672C5.04166 0.325005 5.32499 0.0416718 5.66666 0.0416718C6.00832 0.0416718 6.29166 0.325005 6.29166 0.666672V3.16667C6.29166 3.50834 6.00832 3.79167 5.66666 3.79167Z" fill="white"/>
<path d="M12.3333 3.79167C11.9917 3.79167 11.7083 3.50834 11.7083 3.16667V0.666672C11.7083 0.325005 11.9917 0.0416718 12.3333 0.0416718C12.675 0.0416718 12.9583 0.325005 12.9583 0.666672V3.16667C12.9583 3.50834 12.675 3.79167 12.3333 3.79167Z" fill="white"/>
<path d="M6.08333 11.0834C5.975 11.0834 5.86667 11.0584 5.76667 11.0168C5.65833 10.9751 5.575 10.9168 5.49167 10.8418C5.34167 10.6834 5.25 10.4751 5.25 10.2501C5.25 10.1418 5.275 10.0334 5.31667 9.93342C5.35833 9.83342 5.41667 9.74176 5.49167 9.65842C5.575 9.58342 5.65833 9.52509 5.76667 9.48342C6.06667 9.35842 6.44167 9.42509 6.675 9.65842C6.825 9.81676 6.91667 10.0334 6.91667 10.2501C6.91667 10.3001 6.90833 10.3584 6.9 10.4168C6.89167 10.4668 6.875 10.5168 6.85 10.5668C6.83333 10.6168 6.80833 10.6668 6.775 10.7168C6.75 10.7584 6.70833 10.8001 6.675 10.8418C6.51667 10.9918 6.3 11.0834 6.08333 11.0834Z" fill="white"/>
<path d="M8.99999 11.0833C8.89166 11.0833 8.78332 11.0583 8.68332 11.0166C8.57499 10.9749 8.49166 10.9166 8.40832 10.8416C8.25832 10.6833 8.16666 10.4749 8.16666 10.2499C8.16666 10.1416 8.19166 10.0333 8.23332 9.93325C8.27499 9.83325 8.33332 9.74159 8.40832 9.65825C8.49166 9.58325 8.57499 9.52492 8.68332 9.48325C8.98332 9.34992 9.35832 9.42492 9.59166 9.65825C9.74166 9.81659 9.83332 10.0333 9.83332 10.2499C9.83332 10.2999 9.82499 10.3583 9.81666 10.4166C9.80832 10.4666 9.79166 10.5166 9.76666 10.5666C9.74999 10.6166 9.72499 10.6666 9.69166 10.7166C9.66666 10.7583 9.62499 10.7999 9.59166 10.8416C9.43332 10.9916 9.21666 11.0833 8.99999 11.0833Z" fill="white"/>
<path d="M11.9167 11.0833C11.8083 11.0833 11.7 11.0583 11.6 11.0166C11.4917 10.9749 11.4083 10.9166 11.325 10.8416C11.2917 10.7999 11.2583 10.7583 11.225 10.7166C11.1917 10.6666 11.1667 10.6166 11.15 10.5666C11.125 10.5166 11.1083 10.4666 11.1 10.4166C11.0917 10.3583 11.0833 10.2999 11.0833 10.2499C11.0833 10.0333 11.175 9.81659 11.325 9.65825C11.4083 9.58325 11.4917 9.52492 11.6 9.48325C11.9083 9.34992 12.275 9.42492 12.5083 9.65825C12.6583 9.81659 12.75 10.0333 12.75 10.2499C12.75 10.2999 12.7417 10.3583 12.7333 10.4166C12.725 10.4666 12.7083 10.5166 12.6833 10.5666C12.6667 10.6166 12.6417 10.6666 12.6083 10.7166C12.5833 10.7583 12.5417 10.7999 12.5083 10.8416C12.35 10.9916 12.1333 11.0833 11.9167 11.0833Z" fill="white"/>
<path d="M6.08333 13.9999C5.975 13.9999 5.86667 13.975 5.76667 13.9333C5.66667 13.8917 5.575 13.8332 5.49167 13.7582C5.34167 13.5999 5.25 13.3832 5.25 13.1666C5.25 13.0582 5.275 12.9499 5.31667 12.8499C5.35833 12.7416 5.41667 12.65 5.49167 12.575C5.8 12.2667 6.36667 12.2667 6.675 12.575C6.825 12.7333 6.91667 12.9499 6.91667 13.1666C6.91667 13.3832 6.825 13.5999 6.675 13.7582C6.51667 13.9082 6.3 13.9999 6.08333 13.9999Z" fill="white"/>
<path d="M8.99999 13.9999C8.78332 13.9999 8.56666 13.9082 8.40832 13.7582C8.25832 13.5999 8.16666 13.3832 8.16666 13.1666C8.16666 13.0582 8.19166 12.9499 8.23332 12.8499C8.27499 12.7416 8.33332 12.65 8.40832 12.575C8.71666 12.2667 9.28332 12.2667 9.59166 12.575C9.66666 12.65 9.72499 12.7416 9.76666 12.8499C9.80832 12.9499 9.83332 13.0582 9.83332 13.1666C9.83332 13.3832 9.74166 13.5999 9.59166 13.7582C9.43332 13.9082 9.21666 13.9999 8.99999 13.9999Z" fill="white"/>
<path d="M11.9167 13.9999C11.7 13.9999 11.4833 13.9083 11.325 13.7583C11.25 13.6833 11.1917 13.5916 11.15 13.4833C11.1083 13.3833 11.0833 13.2749 11.0833 13.1666C11.0833 13.0583 11.1083 12.9499 11.15 12.8499C11.1917 12.7416 11.25 12.6499 11.325 12.5749C11.5167 12.3833 11.8083 12.2916 12.075 12.3499C12.1333 12.3583 12.1833 12.3749 12.2333 12.3999C12.2833 12.4166 12.3333 12.4416 12.3833 12.4749C12.425 12.4999 12.4667 12.5416 12.5083 12.5749C12.6583 12.7333 12.75 12.9499 12.75 13.1666C12.75 13.3833 12.6583 13.5999 12.5083 13.7583C12.35 13.9083 12.1333 13.9999 11.9167 13.9999Z" fill="white"/>
<path d="M16.0833 7.19987H1.91666C1.57499 7.19987 1.29166 6.91654 1.29166 6.57487C1.29166 6.23321 1.57499 5.94987 1.91666 5.94987H16.0833C16.425 5.94987 16.7083 6.23321 16.7083 6.57487C16.7083 6.91654 16.425 7.19987 16.0833 7.19987Z" fill="white"/>
<path d="M12.3333 17.9583H5.66667C2.625 17.9583 0.875 16.2083 0.875 13.1667V6.08334C0.875 3.04167 2.625 1.29167 5.66667 1.29167H12.3333C15.375 1.29167 17.125 3.04167 17.125 6.08334V13.1667C17.125 16.2083 15.375 17.9583 12.3333 17.9583ZM5.66667 2.54167C3.28333 2.54167 2.125 3.70001 2.125 6.08334V13.1667C2.125 15.55 3.28333 16.7083 5.66667 16.7083H12.3333C14.7167 16.7083 15.875 15.55 15.875 13.1667V6.08334C15.875 3.70001 14.7167 2.54167 12.3333 2.54167H5.66667Z" fill="white"/>
</svg>
