<svg width="18" height="18" viewBox="0 0 18 18" fill="none" xmlns="http://www.w3.org/2000/svg">
<path d="M5.66663 3.79169C5.32496 3.79169 5.04163 3.50835 5.04163 3.16669V0.666687C5.04163 0.32502 5.32496 0.041687 5.66663 0.041687C6.00829 0.041687 6.29163 0.32502 6.29163 0.666687V3.16669C6.29163 3.50835 6.00829 3.79169 5.66663 3.79169Z" fill="#333333"/>
<path d="M12.3334 3.79169C11.9917 3.79169 11.7084 3.50835 11.7084 3.16669V0.666687C11.7084 0.32502 11.9917 0.041687 12.3334 0.041687C12.675 0.041687 12.9584 0.32502 12.9584 0.666687V3.16669C12.9584 3.50835 12.675 3.79169 12.3334 3.79169Z" fill="#333333"/>
<path d="M6.08333 11.0834C5.975 11.0834 5.86667 11.0584 5.76667 11.0168C5.65833 10.9751 5.575 10.9168 5.49167 10.8418C5.34167 10.6834 5.25 10.4751 5.25 10.2501C5.25 10.1418 5.275 10.0334 5.31667 9.93342C5.35833 9.83342 5.41667 9.74176 5.49167 9.65842C5.575 9.58342 5.65833 9.52509 5.76667 9.48342C6.06667 9.35842 6.44167 9.42509 6.675 9.65842C6.825 9.81676 6.91667 10.0334 6.91667 10.2501C6.91667 10.3001 6.90833 10.3584 6.9 10.4168C6.89167 10.4668 6.875 10.5168 6.85 10.5668C6.83333 10.6168 6.80833 10.6668 6.775 10.7168C6.75 10.7584 6.70833 10.8001 6.675 10.8418C6.51667 10.9918 6.3 11.0834 6.08333 11.0834Z" fill="#333333"/>
<path d="M8.99996 11.0833C8.89163 11.0833 8.78329 11.0583 8.68329 11.0166C8.57496 10.9749 8.49163 10.9166 8.40829 10.8416C8.25829 10.6833 8.16663 10.4749 8.16663 10.2499C8.16663 10.1416 8.19163 10.0333 8.23329 9.93328C8.27496 9.83328 8.33329 9.74162 8.40829 9.65828C8.49163 9.58328 8.57496 9.52495 8.68329 9.48328C8.98329 9.34995 9.35829 9.42495 9.59163 9.65828C9.74163 9.81662 9.83329 10.0333 9.83329 10.2499C9.83329 10.2999 9.82496 10.3583 9.81663 10.4166C9.80829 10.4666 9.79163 10.5166 9.76663 10.5666C9.74996 10.6166 9.72496 10.6666 9.69163 10.7166C9.66663 10.7583 9.62496 10.7999 9.59163 10.8416C9.43329 10.9916 9.21663 11.0833 8.99996 11.0833Z" fill="#333333"/>
<path d="M11.9167 11.0833C11.8084 11.0833 11.7 11.0583 11.6 11.0166C11.4917 10.9749 11.4084 10.9166 11.325 10.8416C11.2917 10.7999 11.2584 10.7583 11.225 10.7166C11.1917 10.6666 11.1667 10.6166 11.15 10.5666C11.125 10.5166 11.1084 10.4666 11.1 10.4166C11.0917 10.3583 11.0834 10.2999 11.0834 10.2499C11.0834 10.0333 11.175 9.81662 11.325 9.65828C11.4084 9.58328 11.4917 9.52495 11.6 9.48328C11.9084 9.34995 12.275 9.42495 12.5084 9.65828C12.6584 9.81662 12.75 10.0333 12.75 10.2499C12.75 10.2999 12.7417 10.3583 12.7334 10.4166C12.725 10.4666 12.7084 10.5166 12.6834 10.5666C12.6667 10.6166 12.6417 10.6666 12.6084 10.7166C12.5834 10.7583 12.5417 10.7999 12.5084 10.8416C12.35 10.9916 12.1334 11.0833 11.9167 11.0833Z" fill="#333333"/>
<path d="M6.08333 13.9999C5.975 13.9999 5.86667 13.975 5.76667 13.9333C5.66667 13.8917 5.575 13.8332 5.49167 13.7582C5.34167 13.5999 5.25 13.3832 5.25 13.1666C5.25 13.0582 5.275 12.9499 5.31667 12.8499C5.35833 12.7416 5.41667 12.65 5.49167 12.575C5.8 12.2667 6.36667 12.2667 6.675 12.575C6.825 12.7333 6.91667 12.9499 6.91667 13.1666C6.91667 13.3832 6.825 13.5999 6.675 13.7582C6.51667 13.9082 6.3 13.9999 6.08333 13.9999Z" fill="#333333"/>
<path d="M8.99996 13.9999C8.78329 13.9999 8.56663 13.9082 8.40829 13.7582C8.25829 13.5999 8.16663 13.3832 8.16663 13.1666C8.16663 13.0582 8.19163 12.9499 8.23329 12.8499C8.27496 12.7416 8.33329 12.65 8.40829 12.575C8.71663 12.2667 9.28329 12.2667 9.59163 12.575C9.66663 12.65 9.72496 12.7416 9.76663 12.8499C9.80829 12.9499 9.83329 13.0582 9.83329 13.1666C9.83329 13.3832 9.74163 13.5999 9.59163 13.7582C9.43329 13.9082 9.21663 13.9999 8.99996 13.9999Z" fill="#333333"/>
<path d="M11.9167 13.9999C11.7 13.9999 11.4834 13.9083 11.325 13.7583C11.25 13.6833 11.1917 13.5916 11.15 13.4833C11.1084 13.3833 11.0834 13.2749 11.0834 13.1666C11.0834 13.0583 11.1084 12.9499 11.15 12.8499C11.1917 12.7416 11.25 12.6499 11.325 12.5749C11.5167 12.3833 11.8084 12.2916 12.075 12.3499C12.1334 12.3583 12.1834 12.3749 12.2334 12.3999C12.2834 12.4166 12.3334 12.4416 12.3834 12.4749C12.425 12.4999 12.4667 12.5416 12.5084 12.5749C12.6584 12.7333 12.75 12.9499 12.75 13.1666C12.75 13.3833 12.6584 13.5999 12.5084 13.7583C12.35 13.9083 12.1334 13.9999 11.9167 13.9999Z" fill="#333333"/>
<path d="M16.0833 7.19989H1.91663C1.57496 7.19989 1.29163 6.91656 1.29163 6.57489C1.29163 6.23322 1.57496 5.94989 1.91663 5.94989H16.0833C16.425 5.94989 16.7083 6.23322 16.7083 6.57489C16.7083 6.91656 16.425 7.19989 16.0833 7.19989Z" fill="#333333"/>
<path d="M12.3333 17.9584H5.66667C2.625 17.9584 0.875 16.2084 0.875 13.1667V6.08335C0.875 3.04169 2.625 1.29169 5.66667 1.29169H12.3333C15.375 1.29169 17.125 3.04169 17.125 6.08335V13.1667C17.125 16.2084 15.375 17.9584 12.3333 17.9584ZM5.66667 2.54169C3.28333 2.54169 2.125 3.70002 2.125 6.08335V13.1667C2.125 15.55 3.28333 16.7084 5.66667 16.7084H12.3333C14.7167 16.7084 15.875 15.55 15.875 13.1667V6.08335C15.875 3.70002 14.7167 2.54169 12.3333 2.54169H5.66667Z" fill="#333333"/>
</svg>
