<svg width="16" height="16" viewBox="0 0 16 16" fill="none" xmlns="http://www.w3.org/2000/svg">
<path d="M7.99991 15.6546C7.88627 15.6546 2.58342 15.6546 2.58342 15.6546C2.24084 15.6546 1.95522 15.4945 1.81932 15.2262C1.68346 14.958 1.72338 14.6329 1.92612 14.3567L2.60686 13.4319C1.16346 11.9984 0.345337 10.0478 0.345337 8C0.345337 3.77922 3.77917 0.345352 7.99991 0.345352C12.2208 0.345352 15.6546 3.77922 15.6546 8C15.6546 12.2208 12.2208 15.6546 7.99991 15.6546ZM7.99991 14.4828C11.5746 14.4828 14.4828 11.5746 14.4828 8C14.4828 4.42539 11.5746 1.51723 7.99991 1.51723C4.42534 1.51723 1.51721 4.42539 1.51721 8C1.51721 9.88852 2.33885 11.6795 3.77147 12.9139L4.18256 13.2681L3.28842 14.4828H7.99991Z" fill="white"/>
<path d="M5.9593 8.00001C5.9593 8.4504 5.59422 8.81555 5.14379 8.81555C4.69328 8.81555 4.32812 8.4504 4.32812 8.00001C4.32812 7.5495 4.69328 7.18434 5.14379 7.18434C5.59422 7.18434 5.9593 7.54954 5.9593 8.00001Z" fill="white"/>
<path d="M8.0003 8.81556C8.45071 8.81556 8.81585 8.45042 8.81585 8.00001C8.81585 7.5496 8.45071 7.18446 8.0003 7.18446C7.54989 7.18446 7.18475 7.5496 7.18475 8.00001C7.18475 8.45042 7.54989 8.81556 8.0003 8.81556Z" fill="white"/>
<path d="M10.857 8.81559C11.3074 8.81559 11.6726 8.45044 11.6726 8C11.6726 7.54957 11.3074 7.18442 10.857 7.18442C10.4065 7.18442 10.0414 7.54957 10.0414 8C10.0414 8.45044 10.4065 8.81559 10.857 8.81559Z" fill="white"/>
</svg>
