<svg width="16" height="16" viewBox="0 0 16 16" fill="none" xmlns="http://www.w3.org/2000/svg">
<path d="M7.99991 15.6546C7.88627 15.6546 2.58342 15.6546 2.58342 15.6546C2.24084 15.6546 1.95522 15.4945 1.81932 15.2262C1.68346 14.958 1.72338 14.6329 1.92612 14.3567L2.60686 13.4319C1.16346 11.9984 0.345337 10.0478 0.345337 7.99999C0.345337 3.7792 3.77917 0.345337 7.99991 0.345337C12.2208 0.345337 15.6546 3.7792 15.6546 7.99999C15.6546 12.2208 12.2208 15.6546 7.99991 15.6546ZM7.99991 14.4828C11.5746 14.4828 14.4828 11.5746 14.4828 7.99999C14.4828 4.42538 11.5746 1.51721 7.99991 1.51721C4.42534 1.51721 1.51721 4.42538 1.51721 7.99999C1.51721 9.8885 2.33885 11.6795 3.77147 12.9139L4.18256 13.2681L3.28842 14.4828H7.99991Z" fill="#333333"/>
</svg>
